<svg width="695" height="626" viewBox="0 0 695 626" fill="none" xmlns="http://www.w3.org/2000/svg">
<path d="M491.897 81.8906H371.471L372.688 64.3318H493.114L491.897 81.8906Z" fill="#CCCCCC"/>
<path d="M491.897 106.486H371.471L372.688 88.9274H493.114L491.897 106.486Z" fill="#CCCCCC"/>
<path d="M491.897 131.098H371.471L372.688 113.523H493.114L491.897 131.098Z" fill="#CCCCCC"/>
<path d="M491.897 155.694H371.471L372.688 138.119H493.114L491.897 155.694Z" fill="#CCCCCC"/>
<path d="M491.897 180.289H371.471L372.688 162.714H493.114L491.897 180.289Z" fill="#CCCCCC"/>
<path d="M491.897 204.885H371.471L372.688 187.326H493.114L491.897 204.885Z" fill="#CCCCCC"/>
<path d="M491.897 229.48H371.471L372.688 211.922H493.114L491.897 229.48Z" fill="#CCCCCC"/>
<path d="M491.897 254.093H371.471L372.688 236.517H493.114L491.897 254.093Z" fill="#CCCCCC"/>
<path d="M491.897 278.688H371.471L372.688 261.113H493.114L491.897 278.688Z" fill="#CCCCCC"/>
<path d="M491.897 303.284H371.471L372.688 285.708H493.114L491.897 303.284Z" fill="#CCCCCC"/>
<path d="M491.897 327.879H371.471L372.688 310.304H493.114L491.897 327.879Z" fill="#CCCCCC"/>
<path d="M619.243 81.8906H498.8L500.018 64.3318H620.461L619.243 81.8906Z" fill="#CCCCCC"/>
<path d="M619.243 106.486H498.8L500.018 88.9274H620.461L619.243 106.486Z" fill="#CCCCCC"/>
<path d="M619.243 131.098H498.8L500.018 113.523H620.461L619.243 131.098Z" fill="#CCCCCC"/>
<path d="M619.243 155.694H498.8L500.018 138.119H620.461L619.243 155.694Z" fill="#CCCCCC"/>
<path d="M619.243 180.289H498.8L500.018 162.714H620.461L619.243 180.289Z" fill="#CCCCCC"/>
<path d="M619.243 204.885H498.8L500.018 187.326H620.461L619.243 204.885Z" fill="#CCCCCC"/>
<path d="M619.243 229.48H498.8L500.018 211.922H620.461L619.243 229.48Z" fill="#CCCCCC"/>
<path d="M619.243 254.093H498.8L500.018 236.517H620.461L619.243 254.093Z" fill="#CCCCCC"/>
<path d="M619.243 278.688H498.8L500.018 261.113H620.461L619.243 278.688Z" fill="#CCCCCC"/>
<path d="M619.243 303.284H498.8L500.018 285.708H620.461L619.243 303.284Z" fill="#CCCCCC"/>
<path d="M619.243 327.879H498.8L500.018 310.304H620.461L619.243 327.879Z" fill="#CCCCCC"/>
<path d="M354.579 63.3647H105.755V276.837H354.579V63.3647Z" fill="#78AA97"/>
<path d="M342.123 74.0367H118.195V266.165H342.123V74.0367Z" fill="white"/>
<path d="M342.123 132.282C301.853 160.93 244.174 179.939 177.258 209.804C156.172 219.063 136.33 230.928 118.195 245.122V266.182H342.123V132.282Z" fill="#78AA97"/>
<path d="M342.123 74.0367H252.261C242.256 82.5909 230.434 92.1457 216.46 102.384C165.318 139.886 187.479 177.421 248.86 150.108C280.359 136.117 315.426 103.718 342.123 75.4874V74.0367Z" fill="#78AA97"/>
<path d="M156.881 95.5807C156.881 79.923 137.388 92.2457 118.278 107.987V147.523C136.871 129.281 156.881 109.588 156.881 95.5807Z" fill="#78AA97"/>
<path d="M175.557 157.812C175.557 161.354 174.506 164.816 172.539 167.761C170.571 170.706 167.774 173.002 164.501 174.357C161.229 175.713 157.628 176.067 154.154 175.376C150.68 174.685 147.489 172.98 144.984 170.475C142.48 167.97 140.774 164.779 140.083 161.305C139.392 157.831 139.747 154.231 141.102 150.958C142.458 147.686 144.753 144.889 147.698 142.921C150.643 140.953 154.106 139.903 157.648 139.903C162.398 139.903 166.953 141.789 170.311 145.148C173.67 148.507 175.557 153.062 175.557 157.812V157.812Z" fill="#78AA97"/>
<path opacity="0.75" d="M342.123 132.282C301.853 160.93 244.174 179.939 177.258 209.804C156.172 219.063 136.33 230.928 118.195 245.122V266.182H342.123V132.282Z" fill="white"/>
<path opacity="0.75" d="M342.123 74.0367H252.261C242.256 82.5909 230.434 92.1457 216.46 102.384C165.318 139.886 187.479 177.421 248.86 150.108C280.359 136.117 315.426 103.718 342.123 75.4874V74.0367Z" fill="white"/>
<g opacity="0.75">
<path opacity="0.75" d="M156.881 95.5807C156.881 79.923 137.388 92.2457 118.278 107.987V147.523C136.871 129.281 156.881 109.588 156.881 95.5807Z" fill="white"/>
</g>
<path opacity="0.75" d="M175.557 157.812C175.557 161.354 174.506 164.816 172.539 167.761C170.571 170.706 167.774 173.002 164.501 174.357C161.229 175.713 157.628 176.067 154.154 175.376C150.68 174.685 147.489 172.98 144.984 170.475C142.48 167.97 140.774 164.779 140.083 161.305C139.392 157.831 139.747 154.231 141.102 150.958C142.458 147.686 144.753 144.889 147.698 142.921C150.643 140.953 154.106 139.903 157.648 139.903C162.398 139.903 166.953 141.789 170.311 145.148C173.67 148.507 175.557 153.062 175.557 157.812V157.812Z" fill="white"/>
<path d="M303.42 214.923C303.42 219.647 302.019 224.264 299.395 228.191C296.77 232.118 293.04 235.179 288.676 236.986C284.312 238.793 279.509 239.264 274.877 238.342C270.245 237.419 265.99 235.143 262.651 231.802C259.312 228.461 257.039 224.205 256.12 219.572C255.2 214.938 255.676 210.137 257.486 205.774C259.295 201.411 262.359 197.683 266.288 195.061C270.217 192.439 274.835 191.042 279.558 191.045C282.693 191.045 285.798 191.663 288.694 192.863C291.59 194.063 294.221 195.822 296.437 198.04C298.653 200.257 300.41 202.89 301.609 205.787C302.807 208.684 303.422 211.788 303.42 214.923V214.923Z" fill="white"/>
<path d="M640.02 503.383C635.692 508.402 632.77 514.478 631.55 520.992L614.558 530.513V485.491L614.891 485.941L641.955 466.131C645.373 466.665 658.513 468.166 670.486 461.712C684.392 454.225 694.548 428.579 694.548 428.579C694.548 428.579 661.398 424.827 650.175 438.734C641.071 450.007 640.754 460.929 640.971 464.647L614.558 483.973V450.707C619.505 448.404 623.877 445.029 627.358 440.826C630.839 436.624 633.342 431.7 634.684 426.412C639.487 407.702 613.841 370.834 613.841 370.834C613.841 370.834 587.161 408.786 592.447 428.029C596.982 444.32 609.122 449.49 612.774 450.69V522.809L593.764 506.918C594.198 503.116 594.548 491.227 583.959 479.321C571.12 464.881 536.919 465.981 536.919 465.981C536.919 465.981 551.343 494.845 563.599 504.467C574.338 512.804 589.162 509.469 592.73 508.452L612.74 525.127V547.055H582.975L595.132 623.026H631.6L643.789 547.071H614.558V532.564L633.234 522.092C637.769 523.36 650.459 525.961 662.465 519.958C677.472 512.471 689.728 496.43 689.728 496.43C689.728 496.43 653.927 487.342 640.02 503.383Z" fill="#78AA97"/>
<path opacity="0.5" d="M640.02 503.383C635.692 508.402 632.77 514.478 631.55 520.992L614.558 530.513V485.491L614.891 485.941L641.955 466.131C645.373 466.665 658.513 468.166 670.486 461.712C684.392 454.225 694.548 428.579 694.548 428.579C694.548 428.579 661.398 424.827 650.175 438.734C641.071 450.007 640.754 460.929 640.971 464.647L614.558 483.973V450.707C619.505 448.404 623.877 445.029 627.358 440.826C630.839 436.624 633.342 431.7 634.684 426.412C639.487 407.702 613.841 370.834 613.841 370.834C613.841 370.834 587.161 408.786 592.447 428.029C596.982 444.32 609.122 449.49 612.774 450.69V522.809L593.764 506.918C594.198 503.116 594.548 491.227 583.959 479.321C571.12 464.881 536.919 465.981 536.919 465.981C536.919 465.981 551.343 494.845 563.599 504.467C574.338 512.804 589.162 509.469 592.73 508.452L612.74 525.127V547.055H582.975L595.132 623.026H631.6L643.789 547.071H614.558V532.564L633.234 522.092C637.769 523.36 650.459 525.961 662.465 519.958C677.472 512.471 689.728 496.43 689.728 496.43C689.728 496.43 653.927 487.342 640.02 503.383Z" fill="white"/>
<path d="M606.32 273.853L557.246 274.269C557.246 274.269 553.911 273.853 553.194 276.287C553.194 276.287 544.673 297.798 544.273 305.502C543.873 313.205 545.94 311.988 542.605 322.177C539.271 332.365 530.033 356.243 524.763 375.72C517.676 401.883 515.826 429.663 515.375 456.677C515.375 461.012 512.707 498.364 519.461 498.364C525.063 498.364 576.706 505.217 577.323 495.262C579.807 455.576 572.637 416.807 586.411 378.221C591.763 363.214 597.9 347.406 602.452 331.731C607.004 316.057 607.788 299.749 610.789 283.707C612.807 272.635 606.32 273.853 606.32 273.853Z" fill="#263238"/>
<path d="M611.139 278.722C610.656 273.052 606.32 273.852 606.32 273.852L557.246 274.269C557.246 274.269 553.911 273.852 553.194 276.287C553.194 276.287 544.673 297.798 544.273 305.502C544.152 307.537 544.208 309.579 544.44 311.605L545.474 313.272C545.474 313.272 547.141 327.462 566.567 328.279C585.994 329.097 596.999 320.159 601.051 311.605C605.103 303.05 606.737 289.293 609.972 281.173C610.32 280.337 610.709 279.518 611.139 278.722V278.722Z" fill="#78AA97"/>
<path d="M599.75 294.563C596.415 306.419 598.433 309.704 595.148 330.114C591.863 350.524 580.007 373.469 575.388 394.629C570.769 415.79 572.77 490.076 573.421 493.378C573.679 495.127 573.774 496.897 573.704 498.664C575.922 497.83 577.256 496.696 577.356 495.146C579.841 455.459 572.67 416.69 586.444 378.104C591.796 363.097 597.933 347.289 602.485 331.614C607.037 315.94 607.821 299.632 610.823 283.591C612.073 276.921 610.106 274.736 608.388 274.086C604.659 280.521 601.757 287.401 599.75 294.563V294.563Z" fill="#78AA97"/>
<path d="M504.953 594.095L504.62 593.828V548.005H511.207V519.041H486.861V548.005H493.431V594.612L435.169 613.188V617.79C435.169 619.187 435.724 620.528 436.712 621.516C437.7 622.504 439.041 623.059 440.438 623.059C441.836 623.059 443.176 622.504 444.164 621.516C445.152 620.528 445.707 619.187 445.707 617.79V617.139L494.432 611.47V618.457C494.432 619.677 494.916 620.848 495.78 621.711C496.643 622.574 497.813 623.059 499.034 623.059C500.254 623.059 501.425 622.574 502.288 621.711C503.151 620.848 503.636 619.677 503.636 618.457V611.237L554.328 617.139V617.79C554.328 619.187 554.883 620.528 555.871 621.516C556.859 622.504 558.2 623.059 559.597 623.059C560.995 623.059 562.335 622.504 563.323 621.516C564.311 620.528 564.867 619.187 564.867 617.79V613.188L504.953 594.095Z" fill="#263238"/>
<path d="M574.421 490.793H429.733C426.049 490.793 423.063 493.78 423.063 497.463V517.724C423.063 521.407 426.049 524.394 429.733 524.394H574.421C578.105 524.394 581.091 521.407 581.091 517.724V497.463C581.091 493.78 578.105 490.793 574.421 490.793Z" fill="#263238"/>
<path d="M4.87145 273.852L53.9458 274.269C53.9458 274.269 57.2808 273.852 58.0145 276.287C58.0145 276.287 66.5354 297.798 66.9356 305.502C67.3358 313.205 65.2681 311.988 68.6031 322.176C71.938 332.365 81.176 356.243 86.4453 375.72C93.5488 401.883 95.383 429.663 95.8332 456.677C95.8332 461.012 98.5012 498.364 91.7479 498.364C86.1618 498.364 34.5195 505.217 33.8858 495.262C31.4179 455.576 38.5715 416.807 24.798 378.221C19.4453 363.213 13.309 347.406 8.77338 331.731C4.2378 316.057 3.4374 299.749 0.435912 283.707C-1.53173 272.635 4.87145 273.852 4.87145 273.852Z" fill="#263238"/>
<path d="M0.136341 278.722C0.619914 273.052 4.93873 273.852 4.93873 273.852L54.0131 274.269C54.0131 274.269 57.3481 273.852 58.0818 276.287C58.0818 276.287 66.6026 297.798 67.0028 305.502C67.1114 307.537 67.05 309.579 66.8194 311.605L65.7856 313.272C65.7856 313.272 64.1181 327.462 44.6918 328.279C25.2655 329.097 14.21 320.159 10.1413 311.588C6.07262 303.017 4.47183 289.277 1.22021 281.156C0.906465 280.324 0.544561 279.511 0.136341 278.722V278.722Z" fill="#78AA97"/>
<path d="M11.442 294.563C14.7769 306.419 12.7593 309.704 16.0442 330.114C19.3292 350.524 31.2018 373.469 35.804 394.629C40.4063 415.79 38.4887 490.076 37.7717 493.378C37.5217 495.128 37.4268 496.897 37.4882 498.664C35.2871 497.83 33.9364 496.696 33.8364 495.146C31.3685 455.459 38.5221 416.69 24.7486 378.104C19.3959 363.097 13.2595 347.289 8.72394 331.614C4.18836 315.94 3.38796 299.632 0.386473 283.591C-0.847473 276.921 1.12017 274.736 2.82101 274.086C6.55265 280.518 9.44962 287.399 11.442 294.563V294.563Z" fill="#78AA97"/>
<path d="M106.239 594.095L106.573 593.828V548.005H99.9025V519.041H124.265V548.005H117.678V594.612L175.94 613.188V617.79C175.94 619.187 175.385 620.528 174.397 621.516C173.409 622.504 172.068 623.059 170.671 623.059C169.273 623.059 167.933 622.504 166.945 621.516C165.957 620.528 165.402 619.187 165.402 617.79V617.139L116.861 611.47V618.457C116.79 619.632 116.274 620.735 115.417 621.542C114.56 622.349 113.427 622.798 112.25 622.798C111.073 622.798 109.941 622.349 109.084 621.542C108.227 620.735 107.71 619.632 107.64 618.457V611.237L56.8312 617.139V617.79C56.8715 618.506 56.7653 619.222 56.5191 619.895C56.273 620.569 55.892 621.185 55.3995 621.706C54.907 622.227 54.3134 622.642 53.6549 622.925C52.9965 623.209 52.2871 623.355 51.5702 623.355C50.8533 623.355 50.1439 623.209 49.4855 622.925C48.827 622.642 48.2334 622.227 47.7409 621.706C47.2485 621.185 46.8675 620.569 46.6213 619.895C46.3751 619.222 46.269 618.506 46.3093 617.79V613.188L106.239 594.095Z" fill="#263238"/>
<path d="M36.7712 524.377H181.46C185.143 524.377 188.13 521.391 188.13 517.707V497.447C188.13 493.763 185.143 490.777 181.46 490.777H36.7712C33.0875 490.777 30.1012 493.763 30.1012 497.447V517.707C30.1012 521.391 33.0875 524.377 36.7712 524.377Z" fill="#263238"/>
<path d="M545.407 396.43H149.21V624.143H545.407V396.43Z" fill="#CCCCCC"/>
<path d="M545.107 401.899H149.41V408.203H545.107V401.899Z" fill="#263238"/>
<path d="M548.342 392.695H140.389V402.65H548.342V392.695Z" fill="#CCCCCC"/>
<path d="M254.696 372.918C254.696 372.918 259.365 393.779 259.098 399.598C258.831 405.418 247.843 421.009 247.559 417.44C247.652 414.416 248.308 411.436 249.493 408.653C249.493 408.653 245.642 413.872 244.274 413.655C242.907 413.438 245.375 406.235 245.375 406.235C245.375 406.235 241.256 410.354 239.872 409.57C238.488 408.786 242.89 402.7 242.89 402.7C242.89 402.7 237.888 407.919 237.688 406.268C237.487 404.617 242.073 397.764 242.073 397.764C242.073 397.764 237.404 387.876 237.071 383.757C237.101 380.88 238.06 378.09 239.805 375.803L254.696 372.918Z" fill="white"/>
<path d="M254.696 372.918C254.696 372.918 259.365 393.779 259.098 399.598C258.831 405.418 247.843 421.009 247.559 417.44C247.652 414.416 248.308 411.436 249.493 408.653C249.493 408.653 245.642 413.872 244.274 413.655C242.907 413.438 245.375 406.235 245.375 406.235C245.375 406.235 241.256 410.354 239.872 409.57C238.488 408.786 242.89 402.7 242.89 402.7C242.89 402.7 237.888 407.919 237.688 406.268C237.487 404.617 242.073 397.764 242.073 397.764C242.073 397.764 237.404 387.876 237.071 383.757C237.101 380.88 238.06 378.09 239.805 375.803L254.696 372.918Z" fill="#D9D9D9"/>
<path d="M254.696 372.918C254.696 372.918 259.365 393.779 259.098 399.598C258.831 405.418 247.843 421.009 247.559 417.44C247.652 414.416 248.308 411.436 249.493 408.653C249.493 408.653 245.642 413.872 244.274 413.655C242.907 413.438 245.375 406.235 245.375 406.235C245.375 406.235 241.256 410.354 239.872 409.57C238.488 408.786 242.89 402.7 242.89 402.7C242.89 402.7 237.888 407.919 237.688 406.268C237.487 404.617 242.073 397.764 242.073 397.764C242.073 397.764 237.404 387.876 237.071 383.757C237.101 380.88 238.06 378.09 239.805 375.803L254.696 372.918Z" stroke="#263238" stroke-linecap="round" stroke-linejoin="round"/>
<path d="M253.595 372.918C253.595 372.918 256.93 387.476 256.63 391.594C256.33 395.713 252.228 407.786 249.21 405.585C246.192 403.383 251.128 395.163 251.128 395.163C251.128 395.163 242.657 389.21 240.706 383.624C238.755 378.038 239.872 375.67 239.872 375.67L253.595 372.918Z" fill="white"/>
<path d="M253.595 372.918C253.595 372.918 256.93 387.476 256.63 391.594C256.33 395.713 252.228 407.786 249.21 405.585C246.192 403.383 251.128 395.163 251.128 395.163C251.128 395.163 242.657 389.21 240.706 383.624C238.755 378.038 239.872 375.67 239.872 375.67L253.595 372.918Z" fill="#D9D9D9"/>
<path d="M253.595 372.918C253.595 372.918 256.93 387.476 256.63 391.594C256.33 395.713 252.228 407.786 249.21 405.585C246.192 403.383 251.128 395.163 251.128 395.163C251.128 395.163 242.657 389.21 240.706 383.624C238.755 378.038 239.872 375.67 239.872 375.67L253.595 372.918Z" stroke="#263238" stroke-linecap="round" stroke-linejoin="round"/>
<path d="M243.54 304.701L255.23 374.319L238.755 378.038L222.28 324.361L243.54 304.701Z" fill="#263238" stroke="#263238" stroke-linecap="round" stroke-linejoin="round"/>
<path d="M238.755 338.718C238.755 338.718 239.822 421.626 241.406 443.953C242.99 466.281 237.154 496.046 231.851 504.55C226.549 513.054 203.137 566.247 204.204 569.399C205.271 572.551 210.057 582.155 210.057 584.807V595.962C210.057 595.962 236.62 613.504 238.755 613.504C240.889 613.504 243.54 617.756 238.221 620.958C232.902 624.16 173.372 624.143 170.721 622.008C168.972 620.439 167.686 618.421 167.002 616.172C167.002 616.172 158.498 619.357 159.032 611.387C159.565 603.416 169.12 569.399 169.12 569.399C169.12 569.399 163.284 532.181 165.402 508.269C167.519 484.357 174.973 455.643 174.973 449.806C174.973 443.97 167.536 405.151 166.469 398.781C165.402 392.411 149.994 374.319 156.897 359.979C163.801 345.638 169.12 322.76 171.255 321.176C173.389 319.592 202.087 318.508 213.776 321.176C225.465 323.844 238.221 323.827 238.755 338.718Z" fill="#263238" stroke="#263238" stroke-linecap="round" stroke-linejoin="round"/>
<path d="M186.062 171.602C186.062 171.602 176.974 179.739 175.407 182.557C173.839 185.375 154.763 212.572 154.446 232.015C154.129 251.458 168.553 310.254 168.553 310.254L146.876 365.398L153.146 367.899L159.399 361.012V371.351C159.399 371.351 166.602 377.921 185.378 384.174C204.154 390.427 228.266 383.24 228.266 383.24L235.453 337.484V382.623L243.907 376.987L244.591 301.816C244.591 301.816 251.478 261.446 251.478 250.124C251.478 238.802 232.385 203.434 223.931 193.162C215.477 182.891 201.386 174.386 197.251 171.252C193.115 168.117 186.062 171.602 186.062 171.602Z" fill="#263238"/>
<path opacity="0.17" d="M186.062 171.602C186.062 171.602 176.974 179.739 175.407 182.557C173.839 185.375 154.763 212.572 154.446 232.015C154.129 251.458 168.553 310.254 168.553 310.254L146.876 365.398L153.146 367.899L159.399 361.012V371.351C159.399 371.351 166.602 377.921 185.378 384.174C204.154 390.427 228.266 383.24 228.266 383.24L235.453 337.484V382.623L243.907 376.987L244.591 301.816C244.591 301.816 251.478 261.446 251.478 250.124C251.478 238.802 232.385 203.434 223.931 193.162C215.477 182.891 201.386 174.386 197.251 171.252C193.115 168.117 186.062 171.602 186.062 171.602Z" fill="white"/>
<path d="M159.315 238.251C159.315 238.251 170.688 246.305 178.258 249.14" stroke="#263238" stroke-linecap="round" stroke-linejoin="round"/>
<path d="M162.634 246.789C162.634 246.789 175.423 250.124 182.043 250.124" stroke="#263238" stroke-linecap="round" stroke-linejoin="round"/>
<path d="M181.109 322.527L217.094 326.795L214.726 334.366L181.576 330.581" stroke="#263238" stroke-linecap="round" stroke-linejoin="round"/>
<path d="M186.062 171.602C186.062 171.602 176.974 179.739 175.407 182.557C173.839 185.375 154.763 212.572 154.446 232.015C154.129 251.458 168.553 310.254 168.553 310.254L146.876 365.398L153.146 367.899L159.399 361.012V371.351C159.399 371.351 166.602 377.921 185.378 384.174C204.154 390.427 228.266 383.24 228.266 383.24L235.453 337.484V382.623L243.907 376.987L244.591 301.816C244.591 301.816 251.478 261.446 251.478 250.124C251.478 238.802 232.385 203.434 223.931 193.162C215.477 182.891 201.386 174.386 197.251 171.252C193.115 168.117 186.062 171.602 186.062 171.602Z" stroke="#263238" stroke-linecap="round" stroke-linejoin="round"/>
<path d="M184.178 173.419L218.928 210.988L239.272 249.807C239.272 249.807 234.886 221.01 231.134 213.122C227.382 205.235 210.474 185.692 208.573 181.307C206.672 176.921 184.178 173.419 184.178 173.419Z" fill="white" stroke="#263238" stroke-linecap="round" stroke-linejoin="round"/>
<path d="M229.65 231.498L239.272 249.841C239.272 249.841 236.287 230.214 233.119 218.959L231.134 213.206C228.471 208.533 225.449 204.073 222.096 199.866L216.644 198.782L218.928 211.055L225.965 216.808L229.65 231.498Z" fill="#263238" stroke="#263238" stroke-linecap="round" stroke-linejoin="round"/>
<path d="M220.379 187.576L222.18 189.661L227.833 196.331L231.168 213.272L216.677 198.815C216.677 198.815 218.578 190.094 220.379 187.576Z" fill="white" stroke="#263238" stroke-linecap="round" stroke-linejoin="round"/>
<path d="M236.77 117.758C236.77 117.758 244.374 123.595 245.325 129.231C246.275 134.867 243.44 141.137 243.757 143.321C244.074 145.505 249.694 150.525 249.393 153.026C249.093 155.527 244.391 156.461 244.391 156.461C244.391 156.461 239.288 175.037 238.038 178.138C236.787 181.24 230.517 180.323 225.832 179.706L217.377 204.718L189.497 171.919L193.882 158.762C193.882 158.762 181.993 144.372 181.043 129.031C180.092 113.69 192.315 103.051 209.84 100.867C227.366 98.6822 242.09 107.12 243.957 110.571C245.825 114.023 236.77 117.758 236.77 117.758Z" fill="white"/>
<path d="M236.77 117.758C236.77 117.758 244.374 123.595 245.324 129.231C246.275 134.867 243.44 141.137 243.757 143.321C244.073 145.505 249.693 150.525 249.393 153.026C249.093 155.527 244.39 156.461 244.39 156.461C244.39 156.461 239.288 175.037 238.037 178.138C236.786 181.24 230.517 180.323 225.831 179.706L217.377 204.718L189.496 171.919L193.882 158.762C193.882 158.762 181.993 144.372 181.042 129.031C180.092 113.69 192.314 103.051 209.84 100.867C227.365 98.6822 242.089 107.12 243.957 110.571C245.824 114.023 236.77 117.758 236.77 117.758Z" fill="#D9D9D9"/>
<path d="M204.288 189.361C208.99 188.41 216.877 186.776 223.981 185.175L225.815 179.739C229.717 180.256 234.719 180.99 236.987 179.406C231.651 177.205 218.445 173.353 215.743 168.4C212.408 162.247 224.081 144.338 224.081 135.384C224.081 126.429 212.892 116.358 212.892 116.358C207.506 111.239 197.684 109.688 188.963 109.688C186.218 112.085 184.069 115.088 182.685 118.46C181.302 121.832 180.722 125.48 180.993 129.114C181.943 144.455 193.832 158.845 193.832 158.845L189.447 172.002L204.288 189.361Z" fill="#B8B8B8"/>
<path d="M236.77 117.758C236.77 117.758 244.374 123.595 245.325 129.231C246.275 134.867 243.44 141.137 243.757 143.321C244.074 145.505 249.694 150.525 249.393 153.026C249.093 155.527 244.391 156.461 244.391 156.461C244.391 156.461 239.288 175.037 238.038 178.138C236.787 181.24 230.517 180.323 225.832 179.706L217.377 204.718L189.497 171.919L193.882 158.762C193.882 158.762 181.993 144.372 181.043 129.031C180.092 113.69 192.315 103.051 209.84 100.867C227.366 98.6822 242.09 107.12 243.957 110.571C245.825 114.023 236.77 117.758 236.77 117.758Z" stroke="#263238" stroke-linecap="round" stroke-linejoin="round"/>
<path d="M236.77 117.758C236.77 117.758 245.842 114.006 243.957 110.571C242.073 107.136 227.366 98.6655 209.84 100.867C192.315 103.068 180.109 113.69 181.043 129.031C181.977 144.372 193.882 158.762 193.882 158.762L193.215 160.763C199.702 163.931 206.405 158.762 206.405 158.762C205.181 159.379 203.793 159.591 202.441 159.366C201.089 159.141 199.843 158.492 198.885 157.511C195.133 154.076 194.816 143.121 199.519 142.17C204.221 141.22 207.339 143.121 207.339 146.556C207.339 149.991 208.273 147.807 210.791 147.49C213.309 147.173 211.091 139.669 212.658 138.419C215.192 136.85 217.419 134.833 219.228 132.466C222.046 128.714 213.909 125.596 212.975 122.144C212.041 118.692 236.77 117.758 236.77 117.758Z" fill="#263238" stroke="#263238" stroke-linecap="round" stroke-linejoin="round"/>
<path d="M239.005 142.204L233.202 144.138H238.455" stroke="#263238" stroke-linecap="round" stroke-linejoin="round"/>
<path d="M241.223 136.401C241.223 136.401 238.738 132.816 235.97 134.467C233.202 136.117 232.935 137.235 232.935 137.235" stroke="#263238" stroke-linecap="round" stroke-linejoin="round"/>
<path d="M235.253 161.547C236.95 162.707 239.023 163.183 241.056 162.881" stroke="#263238" stroke-linecap="round" stroke-linejoin="round"/>
<path d="M188.246 165.966L223.297 200.399L220.179 215.107L182.927 175.037L188.246 165.966Z" fill="white" stroke="#263238" stroke-linecap="round" stroke-linejoin="round"/>
<path d="M322.896 297.614C322.896 297.614 310.557 290.277 308.556 290.944C306.555 291.611 287.212 305.618 288.546 308.953C289.88 312.288 300.219 316.624 306.222 318.958C312.225 321.293 324.564 316.29 324.564 316.29L322.896 297.614Z" fill="white" stroke="#263238" stroke-linecap="round" stroke-linejoin="round"/>
<path d="M286.945 294.946C286.945 294.946 297.617 288.943 299.285 288.943C300.952 288.943 310.624 297.614 310.624 297.614L306.622 303.617C306.622 303.617 319.295 309.954 317.961 312.288C316.627 314.623 311.624 318.291 306.288 318.958C300.952 319.625 285.945 309.954 285.945 309.954L286.945 294.946Z" fill="white"/>
<path d="M286.945 294.946C286.945 294.946 297.617 288.943 299.285 288.943C300.952 288.943 310.624 297.614 310.624 297.614L306.622 303.617C306.622 303.617 319.295 309.954 317.961 312.288C316.627 314.623 311.624 318.291 306.288 318.958C300.952 319.625 285.945 309.954 285.945 309.954L286.945 294.946Z" fill="#D9D9D9"/>
<path d="M286.945 294.946C286.945 294.946 297.617 288.943 299.285 288.943C300.952 288.943 310.624 297.614 310.624 297.614L306.622 303.617C306.622 303.617 319.295 309.954 317.961 312.288C316.627 314.623 311.624 318.291 306.288 318.958C300.952 319.625 285.945 309.954 285.945 309.954L286.945 294.946Z" stroke="#263238" stroke-linecap="round" stroke-linejoin="round"/>
<path d="M279.542 292.278L288.88 293.946L285.878 309.954L277.874 307.286L279.542 292.278Z" fill="white" stroke="#263238" stroke-linecap="round" stroke-linejoin="round"/>
<path d="M171.171 199.232C171.171 199.232 162.167 216.574 161.166 225.245C160.166 233.916 196.851 302.95 199.519 305.285C202.187 307.619 280.209 309.954 280.209 309.954L283.544 292.945L216.844 273.936L194.166 204.235" fill="#263238"/>
<path opacity="0.17" d="M171.171 199.232C171.171 199.232 162.167 216.574 161.166 225.245C160.166 233.916 196.851 302.95 199.519 305.285C202.187 307.619 280.209 309.954 280.209 309.954L283.544 292.945L216.844 273.936L194.166 204.235" fill="white"/>
<path d="M171.171 199.232C171.171 199.232 162.167 216.574 161.166 225.245C160.166 233.916 196.851 302.95 199.519 305.285C202.187 307.619 280.209 309.954 280.209 309.954L283.544 292.945L216.844 273.936L194.166 204.235" stroke="#263238" stroke-linecap="round" stroke-linejoin="round"/>
<path d="M311.224 292.612C311.224 292.612 306.555 288.61 304.888 293.279C303.22 297.948 292.882 309.287 297.551 309.62C302.22 309.954 310.891 300.282 310.891 300.282" fill="white"/>
<path d="M311.224 292.612C311.224 292.612 306.555 288.61 304.888 293.279C303.22 297.948 292.882 309.287 297.551 309.62C302.22 309.954 310.891 300.282 310.891 300.282" stroke="#263238" stroke-linecap="round" stroke-linejoin="round"/>
<path d="M290.547 311.288C290.547 311.288 289.347 316.907 292.215 319.292C294.232 320.959 295.366 316.29 294.883 312.955C294.399 309.62 291.548 308.62 290.547 311.288Z" fill="white" stroke="#263238" stroke-linecap="round" stroke-linejoin="round"/>
<path d="M295.283 312.622C295.283 312.622 294.082 318.241 296.95 320.626C298.968 322.293 300.102 317.624 299.618 314.289C299.135 310.954 296.217 309.954 295.283 312.622Z" fill="white" stroke="#263238" stroke-linecap="round" stroke-linejoin="round"/>
<path d="M299.885 314.623C299.885 314.623 298.684 320.242 301.553 322.627C303.57 324.294 304.704 319.625 304.221 316.29C303.737 312.955 300.886 311.955 299.885 314.623Z" fill="white" stroke="#263238" stroke-linecap="round" stroke-linejoin="round"/>
<path d="M304.504 317.341C304.504 317.341 303.403 321.126 306.038 322.727C307.889 323.861 308.94 320.709 308.489 318.458C308.039 316.207 305.421 315.54 304.504 317.341Z" fill="white" stroke="#263238" stroke-linecap="round" stroke-linejoin="round"/>
<path d="M322.896 297.614L323.897 318.958L331.234 316.957L329.566 297.281L322.896 297.614Z" stroke="#263238" stroke-linecap="round" stroke-linejoin="round"/>
<path d="M327.899 295.613L331.234 320.959L386.928 314.956L388.262 281.94L327.899 295.613Z" fill="#263238" stroke="#263238" stroke-linecap="round" stroke-linejoin="round"/>
<path d="M230.251 396.647C230.251 396.647 220.146 464.147 220.146 487.008C220.146 509.869 204.738 548.138 204.204 569.399" stroke="white" stroke-linecap="round" stroke-linejoin="round"/>
<path d="M170.721 621.975C173.372 624.11 232.902 624.11 238.221 620.925C243.54 617.74 240.872 613.471 238.755 613.471C236.637 613.471 210.057 595.929 210.057 595.929C210.057 595.929 195.7 607.101 187.729 609.752C179.759 612.404 167.003 612.937 167.003 612.937V616.139C167.686 618.387 168.972 620.406 170.721 621.975V621.975Z" fill="white" stroke="#263238" stroke-linecap="round" stroke-linejoin="round"/>
<path d="M238.221 620.958C241.023 619.291 241.556 617.29 241.223 615.806C233.405 617.351 225.463 618.183 217.494 618.29C201.436 618.724 176.174 617.74 167.469 617.373C168.19 619.165 169.335 620.755 170.804 622.009C173.372 624.143 232.902 624.143 238.221 620.958Z" fill="white" stroke="#263238" stroke-linecap="round" stroke-linejoin="round"/>
<path d="M165.452 616.589L167.002 612.971L169.12 569.399C169.12 569.399 159.549 603.416 159.032 611.387C158.632 617.19 163.034 617.073 165.452 616.589Z" fill="#263238" stroke="#263238" stroke-linecap="round" stroke-linejoin="round"/>
<path d="M395.016 383.357C395.016 383.357 389.713 462.563 395.016 494.445C400.318 526.328 413.675 581.622 415.743 588.525C417.045 592.646 417.61 596.965 417.41 601.282L447.175 605.534C447.175 605.534 438.137 500.832 438.137 488.609C438.137 476.386 448.242 384.958 448.242 384.958L395.016 383.357Z" fill="#263238" stroke="#263238" stroke-linecap="round" stroke-linejoin="round"/>
<path d="M417.343 601.281C417.343 601.281 384.927 615.105 381.192 617.756C377.457 620.408 389.179 624.143 403.52 624.143C417.86 624.143 432.234 622.475 432.234 622.475L438.07 619.29L438.604 623.009H454.012C454.012 623.009 456.68 610.253 455.679 607.068C454.921 604.889 454.036 602.756 453.028 600.681L417.343 601.281Z" fill="#263238" stroke="#263238" stroke-linecap="round" stroke-linejoin="round"/>
<path d="M390.23 376.987C390.23 376.987 392.898 452.991 399.268 480.105C405.638 507.218 416.81 573.118 416.81 580.021C416.851 583.968 416.317 587.9 415.226 591.694L413.091 598.63C413.456 600.286 414.015 601.892 414.759 603.416C414.759 603.416 428.566 606.601 437.603 606.601C443.253 606.55 448.866 605.703 454.278 604.083C454.278 604.083 454.562 587.408 455.095 579.487C455.629 571.567 452.978 520.492 452.978 508.269C452.978 496.046 449.776 489.126 449.776 474.252C449.776 459.378 447.125 419.508 447.658 413.122C448.192 406.735 455.629 399.782 457.23 391.861C458.831 383.94 460.415 375.386 460.415 375.386L390.23 376.987Z" fill="#263238" stroke="#263238" stroke-linecap="round" stroke-linejoin="round"/>
<path d="M396.6 456.893C396.6 456.893 411.457 559.961 415.176 566.464C417.394 570.614 417.988 575.441 416.843 580.004" stroke="white" stroke-linecap="round" stroke-linejoin="round"/>
<path d="M377.474 316.924C377.474 316.924 375.489 337.251 375.489 352.792C375.489 361.463 375.406 372.801 375.323 381.006C375.299 384.382 376.451 387.661 378.58 390.28C380.71 392.9 383.685 394.697 386.995 395.363C390.486 396.13 394.043 396.56 397.617 396.647L385.127 319.308C385.127 319.308 379.475 309.754 377.474 316.924Z" fill="#263238" stroke="#263238" stroke-linecap="round" stroke-linejoin="round"/>
<path d="M436.486 178.422C439.531 180.025 442.31 182.089 444.724 184.541C446.851 187.339 448.737 190.312 450.36 193.429C450.36 193.429 472.954 219.476 473.488 222.127C474.021 224.778 460.732 308.503 460.732 308.503L475.872 387.692C475.872 387.692 451.427 401.249 432.818 402.049C419.728 402.616 400.035 398.431 389.463 395.896C387.359 395.398 385.466 394.25 384.05 392.616C382.635 390.983 381.769 388.945 381.576 386.792C380.542 375.653 378.607 353.442 377.474 332.415C376.173 307.986 379.875 259.595 382.476 242.587C385.077 225.579 393.381 202.467 399.751 192.896C406.121 183.324 423.68 173.419 436.486 178.422Z" fill="#263238" stroke="#263238" stroke-linecap="round" stroke-linejoin="round"/>
<path d="M450.36 193.429C448.752 190.355 446.889 187.421 444.79 184.658C442.377 182.206 439.598 180.141 436.553 178.539C425.948 174.353 412.074 180.423 404.02 188.093C402.953 190.461 394.549 209.637 390.563 225.312C386.311 241.987 386.845 263.064 386.845 263.064C386.845 263.064 400.935 244.988 420.061 223.728C429.612 213.101 440.043 203.3 451.244 194.43L450.36 193.429Z" fill="#263238"/>
<path opacity="0.17" d="M450.36 193.429C448.752 190.355 446.889 187.421 444.79 184.658C442.377 182.206 439.598 180.141 436.553 178.539C425.948 174.353 412.074 180.423 404.02 188.093C402.953 190.461 394.549 209.637 390.563 225.312C386.311 241.987 386.845 263.064 386.845 263.064C386.845 263.064 400.935 244.988 420.061 223.728C429.612 213.101 440.043 203.3 451.244 194.43L450.36 193.429Z" fill="white"/>
<path d="M450.36 193.429C448.752 190.355 446.889 187.421 444.79 184.658C442.377 182.206 439.598 180.141 436.553 178.539C425.948 174.353 412.074 180.423 404.02 188.093C402.953 190.461 394.549 209.637 390.563 225.312C386.311 241.987 386.845 263.064 386.845 263.064C386.845 263.064 400.935 244.988 420.061 223.728C429.612 213.101 440.043 203.3 451.244 194.43L450.36 193.429Z" stroke="#263238" stroke-linecap="round" stroke-linejoin="round"/>
<path d="M402.202 200.316C402.202 200.316 395.016 222.844 392.831 229.214C390.647 235.584 390.43 245.572 390.43 245.572C390.43 245.572 417.343 205.302 423.913 198.532C430.483 191.762 439.071 181.19 439.071 181.19L433.285 179.522L402.202 200.316Z" fill="white" stroke="#263238" stroke-linecap="round" stroke-linejoin="round"/>
<path d="M404.187 192.145C404.187 192.145 401.002 201.517 401.002 202.15C401.002 202.784 400.202 211.722 400.202 211.722L411.557 196.364L404.187 192.145Z" fill="white" stroke="#263238" stroke-linecap="round" stroke-linejoin="round"/>
<path d="M433.085 173.419L402.002 198.732L406.788 212.672L438.671 180.189L433.085 173.419Z" fill="white" stroke="#263238" stroke-linecap="round" stroke-linejoin="round"/>
<path d="M429.066 374.186C429.066 374.186 424.647 385.174 423.33 388.776C422.012 392.378 422.679 406.485 422.846 407.969C423.013 409.453 425.631 409.77 425.631 409.77C425.631 409.77 426.448 421.075 427.432 421.442C428.454 421.697 429.498 421.859 430.55 421.926C430.55 421.926 432.351 427.679 434.652 427.178C435.343 426.968 435.958 426.561 436.423 426.007C436.888 425.454 437.182 424.778 437.27 424.06C438.026 424.131 438.788 424.002 439.478 423.686C440.169 423.37 440.764 422.878 441.205 422.259C442.142 420.881 442.914 419.398 443.506 417.841C443.506 417.841 447.442 415.873 447.758 414.389C448.075 412.905 449.076 407.719 449.076 407.719C449.076 407.719 450.226 407.385 450.226 403.95C450.226 400.515 447.608 379.355 447.608 379.355L429.066 374.186Z" fill="white" stroke="#263238" stroke-linecap="round" stroke-linejoin="round"/>
<path d="M425.631 409.77L426.114 399.798" stroke="#263238" stroke-linecap="round" stroke-linejoin="round"/>
<path d="M430.55 421.893L431.617 407.135" stroke="#263238" stroke-linecap="round" stroke-linejoin="round"/>
<path d="M437.27 424.027L438.037 408.052" stroke="#263238" stroke-linecap="round" stroke-linejoin="round"/>
<path d="M443.506 417.807L444.457 406.685" stroke="#263238" stroke-linecap="round" stroke-linejoin="round"/>
<path d="M461.465 214.873L473.421 222.043L469.436 304.701L448.175 382.823L427.982 377.521L434.352 315.823L431.167 253.642C431.167 253.642 435.686 239.152 446.041 231.181" fill="#263238"/>
<path d="M461.465 214.873L473.421 222.043L469.436 304.701L448.175 382.823L427.982 377.521L434.352 315.823L431.167 253.642C431.167 253.642 435.686 239.152 446.041 231.181" stroke="#263238" stroke-linecap="round" stroke-linejoin="round"/>
<path d="M436.87 228.83C436.87 228.83 431.434 242.637 431.167 253.676" stroke="white" stroke-linecap="round" stroke-linejoin="round"/>
<path d="M441.405 235.4C441.405 235.4 432.101 250.591 432.101 257.461C432.101 264.331 434.552 321.66 434.552 321.66L428.182 371.151" stroke="white" stroke-linecap="round" stroke-linejoin="round"/>
<path d="M383.66 122.778C383.66 122.778 377.273 140.92 377.874 143.521C378.474 146.122 379.074 150.091 379.074 150.091C379.074 150.091 369.069 162.447 370.303 163.848C371.537 165.249 377.073 166.833 377.073 166.833C377.073 166.833 381.659 185.976 383.46 187.76C385.261 189.544 396.416 185.575 396.416 185.575L408.372 200.716L432.884 177.205L429.9 164.848C429.9 164.848 442.856 142.12 442.656 131.348C442.456 120.576 420.345 106.236 404.587 106.436C388.829 106.636 374.089 112.422 377.073 116.608C378.831 119.087 381.072 121.185 383.66 122.778Z" fill="white"/>
<path d="M434.919 118.892C431.881 119.336 428.916 120.177 426.098 121.394L402.603 130.915C402.603 130.915 391.414 140.42 392.598 147.69C393.782 154.96 403.787 165.032 401.552 172.302C399.318 179.572 385.327 187.41 385.327 187.41L389.713 187.576C393.048 186.793 396.483 185.575 396.483 185.575L398.317 187.893L420.962 188.71L432.951 177.205L429.966 164.848C429.966 164.848 442.923 142.12 442.723 131.348C442.589 127.38 439.521 122.928 434.919 118.892Z" fill="#B8B8B8"/>
<path d="M383.66 122.778C383.66 122.778 377.273 140.92 377.874 143.521C378.474 146.122 379.074 150.091 379.074 150.091C379.074 150.091 369.069 162.447 370.303 163.848C371.537 165.249 377.073 166.833 377.073 166.833C377.073 166.833 381.659 185.976 383.46 187.76C385.261 189.544 396.416 185.575 396.416 185.575L408.372 200.716L432.884 177.205L429.9 164.848C429.9 164.848 442.856 142.12 442.656 131.348C442.456 120.576 420.345 106.236 404.587 106.436C388.829 106.636 374.089 112.422 377.073 116.608C378.831 119.087 381.072 121.185 383.66 122.778Z" stroke="#263238" stroke-linecap="round" stroke-linejoin="round"/>
<path d="M429.9 164.848C429.9 164.848 442.856 142.12 442.656 131.348C442.456 120.576 420.345 106.236 404.587 106.436C388.829 106.636 374.089 112.422 377.073 116.608C378.831 119.087 381.072 121.185 383.66 122.778C383.66 122.778 393.431 127.363 393.431 128.564C393.431 129.764 387.645 136.134 389.646 138.936C391.647 141.737 401.202 145.105 401.202 145.105C401.202 145.105 399.535 150.491 402.002 151.092C404.47 151.692 405.588 149.291 407.172 147.757C408.756 146.222 414.359 143.955 415.159 150.741C415.63 155.609 414.353 160.486 411.557 164.498C410.773 165.082 421.729 172.469 426.565 170.268C427.815 169.701 429.283 168.95 430.75 168.167L429.9 164.848Z" fill="#263238" stroke="#263238" stroke-linecap="round" stroke-linejoin="round"/>
<path d="M382.059 155.077C382.833 155.077 383.46 152.666 383.46 149.691C383.46 146.716 382.833 144.305 382.059 144.305C381.286 144.305 380.658 146.716 380.658 149.691C380.658 152.666 381.286 155.077 382.059 155.077Z" stroke="#263238" stroke-linecap="round" stroke-linejoin="round"/>
<path d="M383.66 147.507L407.172 147.707" stroke="#263238" stroke-linecap="round" stroke-linejoin="round"/>
<path d="M379.791 141.02C379.791 141.02 382.026 137.451 384.26 141.904" stroke="#263238" stroke-linecap="round" stroke-linejoin="round"/>
<path d="M379.341 170.084C381.76 169.099 384.01 167.743 386.011 166.066" stroke="#263238" stroke-linecap="round" stroke-linejoin="round"/>
<path d="M13.9265 624.143H670.202" stroke="#263238" stroke-width="2" stroke-miterlimit="10"/>
</svg>
