<svg width="1366" height="95" viewBox="0 0 1366 95" fill="none" xmlns="http://www.w3.org/2000/svg">
<path d="M-4 31L21.4762 35.28C46.8571 39.4 98.0958 48.2 148.667 52.32C199.524 56.6 250.762 56.6 301.333 54.48C352.19 52.2 403.429 48.2 454 37.4C504.857 26.6 556.096 9.80003 606.667 3.28003C657.524 -2.99997 708.763 1.00003 759.333 7.52003C810.19 13.8 861.429 22.6 912 35.28C962.857 48.2 1014.1 65 1064.67 60.88C1115.52 56.6 1166.76 31 1217.33 28.88C1268.19 26.6 1319.43 48.2 1344.24 58.72L1370 69.4V95H1344.52C1319.14 95 1267.9 95 1217.33 95C1166.48 95 1115.24 95 1064.67 95C1013.81 95 962.571 95 912 95C861.143 95 809.904 95 759.333 95C708.476 95 657.237 95 606.667 95C555.81 95 504.571 95 454 95C403.143 95 351.904 95 301.333 95C250.476 95 199.238 95 148.667 95C97.8096 95 46.5708 95 21.7625 95H-4V31Z" fill="url(#paint0_linear)"/>
<defs>
<linearGradient id="paint0_linear" x1="683" y1="0.131104" x2="683" y2="95" gradientUnits="userSpaceOnUse">
<stop stop-color="#B2D3C6"/>
<stop offset="0.947917" stop-color="#78AA97"/>
</linearGradient>
</defs>
</svg>
